<svg width="93" height="1016" viewBox="0 0 93 1016" fill="none" xmlns="http://www.w3.org/2000/svg">
<mask id="path-1-outside-1_2_20" maskUnits="userSpaceOnUse" x="0" y="-27.8867" width="93" height="1043" fill="black">
<rect fill="white" y="-27.8867" width="93" height="1043"/>
<path d="M88.4463 994.54V1012.11H4.20996L4.20996 963.83H18.8447L18.8447 994.54H40.5664V965.962H55.1436V994.54H88.4463Z"/>
<path d="M88.4463 898.838V947.352H4.20996L4.20996 898.838H18.8447V929.49H37.3398V900.97H51.9746V929.49H73.6963V898.838H88.4463Z"/>
<path d="M88.4463 832.693V881.207H4.20996L4.20996 832.693H18.8447L18.8447 863.346H37.3398L37.3398 834.825H51.9746L51.9746 863.346H73.6963V832.693H88.4463Z"/>
<path d="M88.4463 815.062H4.20996L4.20996 797.201H73.6963V763.034H88.4463V815.062Z"/>
<path d="M88.4463 685.193V703.055H19.0752V725.929H4.20996L4.20996 662.319H19.0752V685.193H88.4463Z"/>
<path d="M88.4463 580.33V598.134H52.0898L52.0898 631.494H88.4463V649.355H4.20996L4.20996 631.494H37.2246L37.2246 598.134H4.20996L4.20996 580.33H88.4463Z"/>
<path d="M88.4463 510.498V559.012H4.20996L4.20996 510.498H18.8447V541.15H37.3398V512.63H51.9746V541.15H73.6963V510.498H88.4463Z"/>
<path d="M88.4463 413.701L88.4463 462.215H4.20996L4.20996 413.701H18.8447V444.354H37.3398V415.833H51.9746V444.354H73.6963L73.6963 413.701H88.4463Z"/>
<path d="M17.8652 360.29C17.8652 367.012 20.4004 372.217 25.4707 375.904C30.5026 379.592 37.5319 381.436 46.5586 381.436C65.3418 381.436 74.7334 374.387 74.7334 360.29C74.7334 354.375 73.2546 347.211 70.2969 338.799H85.2773C88.1582 345.713 89.5986 353.434 89.5986 361.961C89.5986 374.214 85.8919 383.587 78.4785 390.078C71.0267 396.57 60.3483 399.815 46.4434 399.815C37.6855 399.815 30.0225 398.221 23.4541 395.033C16.8473 391.845 11.7962 387.274 8.30078 381.32C4.76693 375.328 3 368.318 3 360.29C3 352.108 4.97819 343.888 8.93457 335.63L23.4541 341.392C21.9561 344.541 20.6501 347.71 19.5361 350.898C18.4222 354.087 17.8652 357.217 17.8652 360.29Z"/>
<path d="M65.0537 271.099C72.6592 271.099 78.6514 273.845 83.0303 279.338C87.4092 284.792 89.5986 292.398 89.5986 302.154C89.5986 311.143 87.9085 319.094 84.5283 326.008H67.9346C70.4697 320.323 72.2559 315.521 73.293 311.604C74.3301 307.647 74.8486 304.036 74.8486 300.771C74.8486 296.854 74.0996 293.857 72.6016 291.783C71.1035 289.671 68.8757 288.614 65.918 288.614C64.2663 288.614 62.8066 289.075 61.5391 289.997C60.2331 290.919 58.9847 292.283 57.7939 294.088C56.6032 295.855 54.7018 299.485 52.0898 304.978C49.6699 310.125 47.346 313.985 45.1182 316.559C42.8903 319.132 40.2975 321.187 37.3398 322.724C34.3822 324.26 30.9251 325.028 26.9688 325.028C19.5169 325.028 13.6592 322.512 9.39551 317.48C5.13184 312.41 3 305.419 3 296.508C3 292.129 3.51855 287.961 4.55566 284.005C5.59277 280.01 7.05241 275.842 8.93457 271.502L22.8203 277.264C20.9766 281.758 19.6898 285.484 18.96 288.441C18.2301 291.361 17.8652 294.242 17.8652 297.084C17.8652 300.464 18.6527 303.057 20.2275 304.862C21.8024 306.668 23.8574 307.57 26.3926 307.57C27.9674 307.57 29.3503 307.205 30.541 306.476C31.6934 305.746 32.8265 304.593 33.9404 303.019C35.016 301.405 36.9749 297.622 39.8174 291.668C43.5817 283.794 47.3652 278.397 51.168 275.478C54.9323 272.558 59.5609 271.099 65.0537 271.099Z"/>
<path d="M88.4463 223.334V241.195H19.0752V264.069H4.20996L4.20996 200.46H19.0752V223.334H88.4463Z"/>
<path d="M88.4463 135.929L68.3955 142.036V172.746L88.4463 178.854V198.098L3.86426 168.367L3.86426 146.53L88.4463 116.685V135.929ZM53.415 146.3C35.2464 151.946 24.9714 155.134 22.5898 155.864C20.2083 156.556 18.3262 157.055 16.9434 157.362C21.86 158.63 34.0173 162.26 53.415 168.252V146.3Z"/>
<path d="M65.0537 56.3018C72.6592 56.3018 78.6514 59.0482 83.0303 64.541C87.4092 69.9954 89.5986 77.6009 89.5986 87.3574C89.5986 96.3457 87.9085 104.297 84.5283 111.211H67.9346C70.4697 105.526 72.2559 100.725 73.293 96.8066C74.3301 92.8503 74.8486 89.2396 74.8486 85.9746C74.8486 82.0566 74.0996 79.0605 72.6016 76.9863C71.1035 74.8737 68.8757 73.8174 65.918 73.8174C64.2663 73.8174 62.8066 74.2783 61.5391 75.2002C60.2331 76.1221 58.9847 77.4857 57.7939 79.291C56.6032 81.0579 54.7018 84.6878 52.0898 90.1807C49.6699 95.3278 47.346 99.1882 45.1182 101.762C42.8903 104.335 40.2975 106.39 37.3398 107.927C34.3822 109.463 30.9251 110.231 26.9688 110.231C19.5169 110.231 13.6592 107.715 9.39551 102.684C5.13184 97.6133 3 90.6224 3 81.7109C3 77.332 3.51855 73.1644 4.55566 69.208C5.59277 65.2132 7.05241 61.0456 8.93457 56.7051L22.8203 62.4668C20.9766 66.9609 19.6898 70.6868 18.96 73.6445C18.2301 76.5638 17.8652 79.4447 17.8652 82.2871C17.8652 85.6673 18.6527 88.2601 20.2275 90.0654C21.8024 91.8708 23.8574 92.7734 26.3926 92.7734C27.9674 92.7734 29.3503 92.4085 30.541 91.6787C31.6934 90.9489 32.8265 89.7965 33.9404 88.2217C35.016 86.6084 36.9749 82.8249 39.8174 76.8711C43.5817 68.9967 47.3652 63.5999 51.168 60.6807C54.9323 57.7614 59.5609 56.3018 65.0537 56.3018Z"/>
<path d="M38.8955 14.8174L4.20996 -2.75586L4.20996 -22L55.6621 5.94434H88.4463V23.6904H56.2383L4.20996 51.6348L4.20996 32.2754L38.8955 14.8174Z"/>
</mask>
<path d="M88.4463 994.54V1012.11H4.20996L4.20996 963.83H18.8447L18.8447 994.54H40.5664V965.962H55.1436V994.54H88.4463Z" stroke="url(#paint0_linear_2_20)" stroke-opacity="0.3" stroke-width="6" mask="url(#path-1-outside-1_2_20)"/>
<path d="M88.4463 898.838V947.352H4.20996L4.20996 898.838H18.8447V929.49H37.3398V900.97H51.9746V929.49H73.6963V898.838H88.4463Z" stroke="url(#paint1_linear_2_20)" stroke-opacity="0.3" stroke-width="6" mask="url(#path-1-outside-1_2_20)"/>
<path d="M88.4463 832.693V881.207H4.20996L4.20996 832.693H18.8447L18.8447 863.346H37.3398L37.3398 834.825H51.9746L51.9746 863.346H73.6963V832.693H88.4463Z" stroke="url(#paint2_linear_2_20)" stroke-opacity="0.3" stroke-width="6" mask="url(#path-1-outside-1_2_20)"/>
<path d="M88.4463 815.062H4.20996L4.20996 797.201H73.6963V763.034H88.4463V815.062Z" stroke="url(#paint3_linear_2_20)" stroke-opacity="0.3" stroke-width="6" mask="url(#path-1-outside-1_2_20)"/>
<path d="M88.4463 685.193V703.055H19.0752V725.929H4.20996L4.20996 662.319H19.0752V685.193H88.4463Z" stroke="url(#paint4_linear_2_20)" stroke-opacity="0.3" stroke-width="6" mask="url(#path-1-outside-1_2_20)"/>
<path d="M88.4463 580.33V598.134H52.0898L52.0898 631.494H88.4463V649.355H4.20996L4.20996 631.494H37.2246L37.2246 598.134H4.20996L4.20996 580.33H88.4463Z" stroke="url(#paint5_linear_2_20)" stroke-opacity="0.3" stroke-width="6" mask="url(#path-1-outside-1_2_20)"/>
<path d="M88.4463 510.498V559.012H4.20996L4.20996 510.498H18.8447V541.15H37.3398V512.63H51.9746V541.15H73.6963V510.498H88.4463Z" stroke="url(#paint6_linear_2_20)" stroke-opacity="0.3" stroke-width="6" mask="url(#path-1-outside-1_2_20)"/>
<path d="M88.4463 413.701L88.4463 462.215H4.20996L4.20996 413.701H18.8447V444.354H37.3398V415.833H51.9746V444.354H73.6963L73.6963 413.701H88.4463Z" stroke="url(#paint7_linear_2_20)" stroke-opacity="0.3" stroke-width="6" mask="url(#path-1-outside-1_2_20)"/>
<path d="M17.8652 360.29C17.8652 367.012 20.4004 372.217 25.4707 375.904C30.5026 379.592 37.5319 381.436 46.5586 381.436C65.3418 381.436 74.7334 374.387 74.7334 360.29C74.7334 354.375 73.2546 347.211 70.2969 338.799H85.2773C88.1582 345.713 89.5986 353.434 89.5986 361.961C89.5986 374.214 85.8919 383.587 78.4785 390.078C71.0267 396.57 60.3483 399.815 46.4434 399.815C37.6855 399.815 30.0225 398.221 23.4541 395.033C16.8473 391.845 11.7962 387.274 8.30078 381.32C4.76693 375.328 3 368.318 3 360.29C3 352.108 4.97819 343.888 8.93457 335.63L23.4541 341.392C21.9561 344.541 20.6501 347.71 19.5361 350.898C18.4222 354.087 17.8652 357.217 17.8652 360.29Z" stroke="url(#paint8_linear_2_20)" stroke-opacity="0.3" stroke-width="6" mask="url(#path-1-outside-1_2_20)"/>
<path d="M65.0537 271.099C72.6592 271.099 78.6514 273.845 83.0303 279.338C87.4092 284.792 89.5986 292.398 89.5986 302.154C89.5986 311.143 87.9085 319.094 84.5283 326.008H67.9346C70.4697 320.323 72.2559 315.521 73.293 311.604C74.3301 307.647 74.8486 304.036 74.8486 300.771C74.8486 296.854 74.0996 293.857 72.6016 291.783C71.1035 289.671 68.8757 288.614 65.918 288.614C64.2663 288.614 62.8066 289.075 61.5391 289.997C60.2331 290.919 58.9847 292.283 57.7939 294.088C56.6032 295.855 54.7018 299.485 52.0898 304.978C49.6699 310.125 47.346 313.985 45.1182 316.559C42.8903 319.132 40.2975 321.187 37.3398 322.724C34.3822 324.26 30.9251 325.028 26.9688 325.028C19.5169 325.028 13.6592 322.512 9.39551 317.48C5.13184 312.41 3 305.419 3 296.508C3 292.129 3.51855 287.961 4.55566 284.005C5.59277 280.01 7.05241 275.842 8.93457 271.502L22.8203 277.264C20.9766 281.758 19.6898 285.484 18.96 288.441C18.2301 291.361 17.8652 294.242 17.8652 297.084C17.8652 300.464 18.6527 303.057 20.2275 304.862C21.8024 306.668 23.8574 307.57 26.3926 307.57C27.9674 307.57 29.3503 307.205 30.541 306.476C31.6934 305.746 32.8265 304.593 33.9404 303.019C35.016 301.405 36.9749 297.622 39.8174 291.668C43.5817 283.794 47.3652 278.397 51.168 275.478C54.9323 272.558 59.5609 271.099 65.0537 271.099Z" stroke="url(#paint9_linear_2_20)" stroke-opacity="0.3" stroke-width="6" mask="url(#path-1-outside-1_2_20)"/>
<path d="M88.4463 223.334V241.195H19.0752V264.069H4.20996L4.20996 200.46H19.0752V223.334H88.4463Z" stroke="url(#paint10_linear_2_20)" stroke-opacity="0.3" stroke-width="6" mask="url(#path-1-outside-1_2_20)"/>
<path d="M88.4463 135.929L68.3955 142.036V172.746L88.4463 178.854V198.098L3.86426 168.367L3.86426 146.53L88.4463 116.685V135.929ZM53.415 146.3C35.2464 151.946 24.9714 155.134 22.5898 155.864C20.2083 156.556 18.3262 157.055 16.9434 157.362C21.86 158.63 34.0173 162.26 53.415 168.252V146.3Z" stroke="url(#paint11_linear_2_20)" stroke-opacity="0.3" stroke-width="6" mask="url(#path-1-outside-1_2_20)"/>
<path d="M65.0537 56.3018C72.6592 56.3018 78.6514 59.0482 83.0303 64.541C87.4092 69.9954 89.5986 77.6009 89.5986 87.3574C89.5986 96.3457 87.9085 104.297 84.5283 111.211H67.9346C70.4697 105.526 72.2559 100.725 73.293 96.8066C74.3301 92.8503 74.8486 89.2396 74.8486 85.9746C74.8486 82.0566 74.0996 79.0605 72.6016 76.9863C71.1035 74.8737 68.8757 73.8174 65.918 73.8174C64.2663 73.8174 62.8066 74.2783 61.5391 75.2002C60.2331 76.1221 58.9847 77.4857 57.7939 79.291C56.6032 81.0579 54.7018 84.6878 52.0898 90.1807C49.6699 95.3278 47.346 99.1882 45.1182 101.762C42.8903 104.335 40.2975 106.39 37.3398 107.927C34.3822 109.463 30.9251 110.231 26.9688 110.231C19.5169 110.231 13.6592 107.715 9.39551 102.684C5.13184 97.6133 3 90.6224 3 81.7109C3 77.332 3.51855 73.1644 4.55566 69.208C5.59277 65.2132 7.05241 61.0456 8.93457 56.7051L22.8203 62.4668C20.9766 66.9609 19.6898 70.6868 18.96 73.6445C18.2301 76.5638 17.8652 79.4447 17.8652 82.2871C17.8652 85.6673 18.6527 88.2601 20.2275 90.0654C21.8024 91.8708 23.8574 92.7734 26.3926 92.7734C27.9674 92.7734 29.3503 92.4085 30.541 91.6787C31.6934 90.9489 32.8265 89.7965 33.9404 88.2217C35.016 86.6084 36.9749 82.8249 39.8174 76.8711C43.5817 68.9967 47.3652 63.5999 51.168 60.6807C54.9323 57.7614 59.5609 56.3018 65.0537 56.3018Z" stroke="url(#paint12_linear_2_20)" stroke-opacity="0.3" stroke-width="6" mask="url(#path-1-outside-1_2_20)"/>
<path d="M38.8955 14.8174L4.20996 -2.75586L4.20996 -22L55.6621 5.94434H88.4463V23.6904H56.2383L4.20996 51.6348L4.20996 32.2754L38.8955 14.8174Z" stroke="url(#paint13_linear_2_20)" stroke-opacity="0.3" stroke-width="6" mask="url(#path-1-outside-1_2_20)"/>
<defs>
<linearGradient id="paint0_linear_2_20" x1="34.5002" y1="-42" x2="46.0003" y2="1189.5" gradientUnits="userSpaceOnUse">
<stop stop-color="white"/>
<stop offset="1" stop-color="white" stop-opacity="0.1"/>
</linearGradient>
<linearGradient id="paint1_linear_2_20" x1="34.5002" y1="-42" x2="46.0003" y2="1189.5" gradientUnits="userSpaceOnUse">
<stop stop-color="white"/>
<stop offset="1" stop-color="white" stop-opacity="0.1"/>
</linearGradient>
<linearGradient id="paint2_linear_2_20" x1="34.5002" y1="-42" x2="46.0003" y2="1189.5" gradientUnits="userSpaceOnUse">
<stop stop-color="white"/>
<stop offset="1" stop-color="white" stop-opacity="0.1"/>
</linearGradient>
<linearGradient id="paint3_linear_2_20" x1="34.5002" y1="-42" x2="46.0003" y2="1189.5" gradientUnits="userSpaceOnUse">
<stop stop-color="white"/>
<stop offset="1" stop-color="white" stop-opacity="0.1"/>
</linearGradient>
<linearGradient id="paint4_linear_2_20" x1="34.5002" y1="-42" x2="46.0003" y2="1189.5" gradientUnits="userSpaceOnUse">
<stop stop-color="white"/>
<stop offset="1" stop-color="white" stop-opacity="0.1"/>
</linearGradient>
<linearGradient id="paint5_linear_2_20" x1="34.5002" y1="-42" x2="46.0003" y2="1189.5" gradientUnits="userSpaceOnUse">
<stop stop-color="white"/>
<stop offset="1" stop-color="white" stop-opacity="0.1"/>
</linearGradient>
<linearGradient id="paint6_linear_2_20" x1="34.5002" y1="-42" x2="46.0003" y2="1189.5" gradientUnits="userSpaceOnUse">
<stop stop-color="white"/>
<stop offset="1" stop-color="white" stop-opacity="0.1"/>
</linearGradient>
<linearGradient id="paint7_linear_2_20" x1="34.5002" y1="-42" x2="46.0003" y2="1189.5" gradientUnits="userSpaceOnUse">
<stop stop-color="white"/>
<stop offset="1" stop-color="white" stop-opacity="0.1"/>
</linearGradient>
<linearGradient id="paint8_linear_2_20" x1="34.5002" y1="-42" x2="46.0003" y2="1189.5" gradientUnits="userSpaceOnUse">
<stop stop-color="white"/>
<stop offset="1" stop-color="white" stop-opacity="0.1"/>
</linearGradient>
<linearGradient id="paint9_linear_2_20" x1="34.5002" y1="-42" x2="46.0003" y2="1189.5" gradientUnits="userSpaceOnUse">
<stop stop-color="white"/>
<stop offset="1" stop-color="white" stop-opacity="0.1"/>
</linearGradient>
<linearGradient id="paint10_linear_2_20" x1="34.5002" y1="-42" x2="46.0003" y2="1189.5" gradientUnits="userSpaceOnUse">
<stop stop-color="white"/>
<stop offset="1" stop-color="white" stop-opacity="0.1"/>
</linearGradient>
<linearGradient id="paint11_linear_2_20" x1="34.5002" y1="-42" x2="46.0003" y2="1189.5" gradientUnits="userSpaceOnUse">
<stop stop-color="white"/>
<stop offset="1" stop-color="white" stop-opacity="0.1"/>
</linearGradient>
<linearGradient id="paint12_linear_2_20" x1="34.5002" y1="-42" x2="46.0003" y2="1189.5" gradientUnits="userSpaceOnUse">
<stop stop-color="white"/>
<stop offset="1" stop-color="white" stop-opacity="0.1"/>
</linearGradient>
<linearGradient id="paint13_linear_2_20" x1="34.5002" y1="-42" x2="46.0003" y2="1189.5" gradientUnits="userSpaceOnUse">
<stop stop-color="white"/>
<stop offset="1" stop-color="white" stop-opacity="0.1"/>
</linearGradient>
</defs>
</svg>
