<?xml version="1.0" standalone="no"?>
<!DOCTYPE svg PUBLIC "-//W3C//DTD SVG 20010904//EN"
 "http://www.w3.org/TR/2001/REC-SVG-20010904/DTD/svg10.dtd">
<svg version="1.0" xmlns="http://www.w3.org/2000/svg"
 width="1200.000000pt" height="1200.000000pt" viewBox="0 0 1200.000000 1200.000000"
 preserveAspectRatio="xMidYMid meet">
<metadata>
Created by potrace 1.14, written by Peter Selinger 2001-2017
</metadata>
<g transform="translate(0.000000,1200.000000) scale(0.100000,-0.100000)"
fill="#000000" stroke="none">
<path d="M3181 9110 c-74 -21 -145 -43 -158 -49 -13 -6 -35 -11 -48 -11 -13 0
-27 -5 -30 -10 -4 -6 -11 -8 -16 -5 -5 4 -9 2 -9 -4 0 -5 -8 -8 -17 -7 -9 2
-28 -3 -42 -10 -13 -7 -28 -11 -33 -8 -4 3 -8 0 -8 -7 0 -7 -3 -10 -6 -7 -3 3
-32 -5 -64 -18 -33 -13 -90 -26 -127 -29 -38 -3 -79 -8 -93 -10 -14 -2 -49 -7
-77 -9 -29 -3 -67 -8 -85 -12 -43 -8 -65 -11 -112 -18 -21 -4 -41 -8 -45 -11
-4 -2 -22 -7 -40 -10 -19 -3 -49 -12 -67 -20 -19 -8 -34 -12 -34 -9 0 10 -87
-40 -130 -75 -81 -65 -144 -136 -212 -237 -27 -39 -48 -76 -48 -82 0 -7 -4
-12 -9 -12 -5 0 -14 -13 -21 -30 -7 -16 -17 -30 -22 -30 -5 0 -6 -5 -2 -12 4
-6 0 -16 -8 -22 -8 -6 -15 -15 -16 -19 0 -4 -15 -42 -33 -85 -58 -140 -96
-305 -102 -449 -1 -23 -5 -45 -9 -49 -4 -3 -3 -15 3 -25 6 -12 6 -19 0 -19 -5
0 -8 -8 -6 -17 2 -10 7 -63 10 -118 7 -122 9 -137 19 -153 4 -7 6 -16 3 -18
-3 -3 -1 -20 4 -37 6 -18 12 -43 15 -57 5 -26 39 -130 54 -165 4 -11 18 -41
30 -67 12 -26 19 -52 15 -58 -3 -5 -1 -10 5 -10 7 0 10 -6 7 -12 -2 -7 4 -35
14 -63 10 -27 20 -70 23 -95 2 -25 5 -45 6 -45 1 0 3 -7 5 -15 7 -36 16 -87
21 -115 2 -16 9 -44 14 -61 6 -17 13 -42 15 -55 3 -13 8 -37 12 -54 4 -16 6
-34 5 -39 -2 -4 1 -13 6 -20 5 -6 13 -24 17 -41 5 -16 9 -32 10 -35 1 -3 5
-18 10 -35 5 -16 17 -50 28 -73 10 -24 21 -60 23 -80 3 -20 8 -41 13 -46 4 -6
13 -27 20 -46 51 -151 198 -412 284 -505 45 -49 137 -142 137 -140 0 2 15 -11
34 -28 68 -64 97 -87 105 -87 5 0 11 -3 13 -7 3 -9 49 -47 92 -78 15 -11 48
-35 71 -52 24 -18 48 -33 53 -33 5 0 24 -15 43 -33 19 -18 52 -46 74 -62 54
-39 125 -113 125 -131 0 -8 3 -14 8 -14 4 0 16 -18 26 -40 11 -22 23 -40 28
-40 5 0 7 -4 4 -9 -4 -5 -2 -11 2 -13 5 -1 29 -32 55 -67 45 -63 46 -64 42
-130 -6 -82 -15 -143 -24 -156 -4 -5 -7 -21 -6 -35 0 -14 -2 -27 -6 -30 -4 -3
-10 -25 -13 -50 -10 -78 -14 -99 -20 -109 -4 -5 -1 -13 4 -16 8 -5 7 -12 -3
-23 -12 -15 -15 -26 -19 -79 -1 -7 -5 -10 -10 -7 -4 3 -8 -1 -9 -8 -5 -54 -7
-73 -9 -73 -1 0 -4 -13 -6 -30 -3 -16 -9 -32 -13 -35 -4 -3 -8 -25 -10 -50 -1
-25 -7 -47 -12 -48 -5 -2 -7 -7 -4 -12 3 -4 0 -32 -5 -61 -6 -30 -13 -72 -16
-94 -13 -91 -25 -175 -31 -200 -6 -30 -14 -93 -18 -150 -2 -27 -4 -50 -5 -50
-2 0 -9 -79 -15 -155 -2 -36 -7 -78 -10 -95 -3 -16 -7 -65 -10 -107 l-6 -78
3246 0 c2069 0 3245 3 3245 10 0 5 -19 33 -43 62 -24 29 -61 87 -84 128 -44
81 -134 231 -192 320 -20 30 -42 68 -50 83 -8 15 -18 27 -23 27 -4 0 -8 5 -8
11 0 12 -60 103 -72 107 -4 2 -6 8 -2 13 3 5 0 9 -5 9 -6 0 -11 6 -11 13 0 8
-11 24 -25 37 -14 13 -25 27 -25 32 0 5 -5 14 -10 21 -6 7 -38 48 -71 92 -70
92 -106 138 -132 169 -11 11 -35 41 -55 65 -21 24 -106 114 -190 200 -84 86
-158 161 -163 168 -7 8 -5 20 6 37 10 14 14 26 10 26 -5 0 -1 8 7 18 16 18 32
53 30 64 -1 3 5 12 13 18 8 7 15 18 15 25 0 18 33 75 43 75 5 0 6 4 3 9 -4 5
8 22 25 38 17 15 43 46 59 68 15 22 41 54 56 71 16 17 41 46 56 65 37 47 181
222 237 289 54 65 157 170 166 170 4 0 12 6 19 13 25 25 119 102 135 111 8 5
25 18 36 29 39 37 97 46 91 15 -4 -19 -22 -61 -53 -124 -29 -59 -26 -77 6 -45
12 12 19 21 16 21 -2 0 6 11 18 24 52 56 67 74 67 83 0 5 9 15 20 23 11 8 20
20 20 27 0 7 4 13 9 13 5 0 11 8 14 18 2 9 2 -31 -1 -90 -4 -95 -3 -108 12
-108 9 0 16 8 17 18 0 9 2 25 5 35 2 9 6 25 8 35 3 9 5 19 7 22 1 3 3 10 4 15
13 57 19 76 26 81 5 3 7 10 4 15 -4 5 1 9 9 9 9 0 16 -3 16 -7 0 -13 153 -81
199 -90 14 -2 29 -7 35 -11 6 -3 19 -8 28 -9 10 -2 21 -3 25 -4 36 -6 39 1 40
89 0 75 4 117 17 182 8 42 19 107 22 125 1 11 3 21 3 22 1 2 16 -6 34 -17 33
-21 67 -26 67 -11 0 4 -13 24 -30 42 -37 42 -37 51 -2 43 15 -3 33 -5 40 -5 6
1 18 1 25 2 6 0 48 -1 93 -2 45 -1 85 0 90 3 5 2 24 4 42 3 39 -3 43 18 12 58
-12 15 -20 29 -20 32 1 3 -2 20 -6 38 -4 17 -7 48 -8 67 -1 19 -5 40 -9 47 -4
6 -4 14 0 16 5 3 8 26 8 51 0 25 2 46 5 46 3 0 19 -23 35 -51 38 -64 63 -91
77 -83 6 4 7 9 0 13 -17 10 -44 103 -49 166 -5 59 -5 59 14 42 11 -9 27 -17
36 -17 9 0 18 -4 22 -9 3 -6 13 -9 23 -9 9 0 35 -3 57 -7 67 -11 265 -15 265
-5 0 5 -24 25 -52 44 -75 50 -111 83 -103 95 3 6 2 11 -2 11 -7 0 -31 76 -49
153 -1 4 -3 8 -4 10 -1 1 -4 11 -5 22 -1 11 -6 37 -10 59 -7 36 -7 38 13 27
11 -6 36 -30 56 -53 56 -65 45 -20 -20 78 -53 83 -68 111 -84 165 l-8 26 75
-19 c42 -10 82 -17 89 -14 7 3 16 1 19 -4 4 -6 19 -10 35 -10 16 0 31 -4 34
-9 10 -15 45 -1 39 15 -3 8 -8 13 -11 10 -2 -3 -26 12 -52 34 -26 22 -49 37
-52 35 -3 -3 -11 6 -18 20 -7 14 -17 25 -21 25 -10 0 -89 115 -89 129 0 6 -4
11 -10 11 -5 0 -10 6 -10 14 0 8 -6 21 -12 28 -7 7 -35 58 -63 113 -27 55 -54
103 -60 107 -26 19 37 29 163 28 52 -1 67 7 51 26 -6 8 -18 14 -25 14 -26 0
-213 85 -201 91 6 4 32 10 57 14 25 4 56 13 70 20 14 8 51 24 83 36 57 23 72
38 40 41 -10 0 -22 2 -28 3 -5 2 -20 3 -33 4 -13 0 -21 5 -17 11 3 5 12 7 19
4 8 -3 17 0 21 5 3 6 11 9 16 6 5 -4 18 -8 28 -10 14 -3 18 1 14 11 -3 8 -12
14 -20 14 -22 0 -103 39 -103 50 0 5 -7 7 -15 4 -8 -4 -15 -2 -15 3 0 4 -18
19 -40 33 -22 14 -40 28 -40 32 0 5 -7 8 -15 8 -8 0 -15 5 -15 10 0 6 -6 10
-13 10 -7 0 -41 26 -77 58 -36 32 -74 62 -84 65 -26 10 -15 18 31 21 21 2 49
6 63 9 14 4 41 9 60 12 58 9 64 11 67 21 2 6 -14 9 -34 9 -21 -1 -42 1 -48 4
-5 3 -14 6 -20 7 -9 2 -62 15 -115 29 -8 2 -19 4 -24 4 -19 2 9 20 62 41 55
21 237 124 246 139 3 5 -8 7 -25 5 -17 -2 -36 -1 -41 2 -6 4 -31 8 -57 10 -94
6 -202 35 -283 76 -21 10 -38 16 -38 14 0 -3 -18 1 -40 9 -22 8 -40 12 -40 8
0 -3 -6 -1 -12 4 -7 5 -28 9 -45 8 -18 -1 -33 -1 -33 1 0 6 74 35 93 37 9 1
17 5 17 10 0 5 9 7 20 4 11 -3 20 -1 20 4 0 5 9 9 21 9 23 0 79 30 79 42 0 4
-4 10 -10 13 -5 3 -10 2 -10 -3 0 -11 -249 -12 -256 0 -3 4 -9 6 -13 3 -5 -2
-37 0 -72 6 -35 6 -77 12 -94 14 -16 2 -48 7 -70 11 -38 8 -51 9 -102 12 -13
1 -23 6 -23 12 0 5 3 9 8 9 4 -1 10 0 15 1 4 1 10 3 15 4 23 6 58 20 62 25 3
4 23 18 45 31 48 29 73 51 178 152 74 71 83 89 31 60 -12 -6 -24 -8 -28 -5 -3
3 -6 1 -6 -5 0 -6 -12 -13 -27 -16 -120 -26 -128 -27 -278 -26 -141 0 -165 2
-242 15 -40 7 -42 9 -31 29 7 11 13 23 13 26 0 3 6 15 13 28 7 12 10 22 7 22
-3 0 4 18 15 40 26 52 25 60 -7 60 -20 0 -43 -15 -78 -48 -50 -49 -152 -122
-169 -122 -5 0 12 20 38 45 59 58 63 88 6 48 -24 -17 -92 -45 -97 -40 -1 2 16
29 38 60 l41 57 -536 0 -536 0 -45 -61 c-25 -34 -45 -68 -45 -77 0 -11 -3 -13
-10 -6 -6 6 -11 40 -12 77 -2 66 -2 67 -29 67 -15 0 -30 -4 -33 -8 -9 -15 -18
-76 -20 -137 -2 -57 -4 -60 -27 -58 -95 8 -93 8 -170 -53 -41 -32 -83 -67 -93
-77 -11 -9 -25 -16 -30 -15 -6 1 -22 -4 -36 -12 -14 -7 -26 -12 -28 -11 -1 1
-15 0 -30 -3 -15 -4 -47 -8 -72 -11 -25 -2 -63 -7 -85 -10 -44 -7 -159 -13
-310 -18 -68 -2 -111 1 -135 10 -19 8 -35 13 -35 11 -1 -2 -19 4 -40 14 -56
23 -77 30 -100 35 -10 2 -22 7 -25 11 -3 4 -12 9 -20 10 -8 2 -22 5 -30 7 -29
7 -75 23 -111 39 -20 8 -47 17 -60 20 -13 3 -49 12 -79 21 -30 8 -66 18 -80
20 -29 6 -93 20 -130 30 -14 3 -36 8 -50 10 -14 2 -36 7 -50 10 -14 4 -34 8
-45 10 -11 2 -20 4 -20 5 0 3 -52 13 -77 14 -16 0 -28 3 -28 6 0 5 -28 10 -67
13 -7 0 -13 3 -13 7 0 4 -6 7 -12 7 -24 0 -99 13 -107 17 -4 3 -21 8 -37 11
-72 13 -85 16 -109 25 -14 5 -25 8 -25 5 0 -2 -41 7 -91 21 l-90 24 -842 -1
-842 -1 -134 -38z m2976 -1204 c12 -4 32 -9 45 -11 35 -7 100 -37 127 -60 52
-43 101 -99 101 -115 0 -6 4 -10 9 -10 5 0 14 -13 21 -30 7 -16 16 -30 21 -30
5 0 9 -7 9 -15 0 -8 5 -15 12 -15 6 0 9 -3 6 -6 -4 -3 18 -30 49 -60 40 -40
53 -59 48 -72 -4 -9 -9 -27 -11 -39 -3 -25 -33 -74 -51 -86 -7 -4 -13 -13 -13
-19 0 -8 -108 -136 -150 -178 -26 -26 -94 -150 -82 -150 4 0 2 -4 -5 -8 -6 -4
-13 -16 -15 -27 -1 -11 -5 -22 -8 -25 -16 -15 -72 -253 -84 -355 -4 -35 -10
-64 -20 -100 -1 -5 -6 -32 -11 -60 -4 -27 -11 -57 -16 -66 -5 -9 -11 -32 -13
-50 -6 -45 -32 -141 -53 -196 -3 -10 -7 -20 -8 -23 -1 -3 -8 -21 -16 -40 -7
-19 -12 -38 -11 -42 1 -5 -2 -8 -7 -8 -5 0 -11 -12 -14 -27 -6 -34 -12 -53
-20 -73 -19 -46 -30 -77 -33 -91 -2 -9 -9 -29 -15 -45 -13 -32 -15 -37 -24
-74 -12 -47 -12 -55 -4 -82 6 -21 4 -28 -7 -28 -8 0 -14 5 -14 10 0 6 -9 10
-19 10 -11 0 -21 4 -23 8 -4 10 -147 73 -170 75 -10 1 -18 5 -18 9 0 4 -3 7
-7 6 -7 -3 -114 25 -153 40 -8 3 -21 4 -27 3 -7 -1 -13 6 -14 16 0 10 -3 27
-6 38 -3 11 -6 30 -7 43 0 12 -5 22 -10 22 -5 0 -7 3 -4 6 6 5 -28 107 -58
171 -101 217 -351 426 -626 524 -82 29 -131 69 -143 118 -7 29 -103 228 -120
249 -5 7 -16 19 -23 27 -7 8 -12 17 -11 21 0 3 -7 16 -17 27 -11 12 -27 35
-38 51 -28 44 -195 206 -211 206 -8 0 -15 4 -15 9 0 5 -18 18 -40 27 -38 17
-39 19 -19 26 13 5 39 11 58 14 20 3 39 8 44 11 4 2 20 6 35 9 38 6 316 97
322 106 3 3 19 10 35 14 17 4 44 15 62 25 17 10 34 15 37 12 3 -3 12 2 21 11
9 9 25 16 36 16 10 0 19 4 19 9 0 5 17 15 37 22 20 6 57 24 82 38 86 49 321
161 341 162 3 1 10 5 17 11 7 5 16 7 21 4 6 -3 15 1 22 9 7 8 18 15 25 15 7 0
41 9 76 20 35 11 74 21 86 22 13 2 23 5 23 9 0 3 6 6 13 6 15 1 94 12 128 19
14 3 57 7 94 9 37 2 69 6 71 7 6 7 310 1 331 -6z"/>
</g>
</svg>
